<?xml version="1.0" encoding="UTF-8"?>
<svg xmlns="http://www.w3.org/2000/svg" viewBox="0 0 1402.03 656.64">
  <defs>
    <style>
      .cls-1 {
        fill: #2956a3;
      }

      .cls-2, .cls-3 {
        fill: #fff;
      }

      .cls-3, .cls-4, .cls-5, .cls-6 {
        fill-rule: evenodd;
      }

      .cls-7 {
        isolation: isolate;
      }

      .cls-8, .cls-5 {
        fill: #2955a4;
      }

      .cls-4 {
        fill: #c4603c;
      }

      .cls-6 {
        fill: #ffe266;
      }

      .cls-9 {
        fill: #2955a4;
      }
    </style>
  </defs>
  <g id="Obszar_kompozycji_2" data-name="Obszar kompozycji 2" class="cls-7">
    <path class="cls-1" d="M805.42,471.48c0,4.62-1.05,9.11-3.15,13.46-2.1,4.35-5.06,8.22-8.85,11.59-8.01,7.11-17.41,10.66-28.22,10.66s-20.01-3.47-27.01-10.39l-82.54-75.95h-53.73v51.43c0,4.8-1.05,9.33-3.15,13.59-2.1,4.26-4.95,7.99-8.56,11.19-7.6,6.75-17,10.13-28.21,10.13s-20.61-3.38-28.21-10.13c-3.61-3.2-6.45-6.93-8.56-11.19-2.1-4.26-3.15-8.79-3.15-13.59V190.1c0-4.8,1.05-9.37,3.15-13.72,2.11-4.35,4.95-8.13,8.56-11.33,7.8-6.92,17.2-10.39,28.21-10.39h112.56c20.41,0,39.77,3.38,58.08,10.13,18.3,6.75,34.26,16.16,47.87,28.24,14,12.44,24.76,26.74,32.27,42.9,7.5,16.17,11.25,34.02,11.25,53.56,0,24.16-6.9,46.54-20.71,67.15-13.81,20.43-32.11,36.15-54.93,47.16l45.63,42.63c7.6,7.29,11.4,15.64,11.4,25.05Z"/>
    <path class="cls-8" d="M992.75,506.65h226.91c5.4,0,10.5-.93,15.31-2.8,4.8-1.87,9.01-4.4,12.61-7.59,7.6-6.75,11.4-15.1,11.4-25.05s-3.8-18.29-11.4-25.05c-3.6-3.2-7.8-5.73-12.61-7.59-4.8-1.87-9.9-2.8-15.31-2.8h-149.17l170.48-221.96c2.6-3.2,4.75-6.88,6.45-11.06,1.7-4.17,2.55-8.39,2.55-12.66,0-9.59-3.7-17.94-11.11-25.05-8.01-7.1-17.41-10.75-28.21-10.92h-212.51c-5.4,0-10.61.93-15.61,2.8-5,1.87-9.3,4.4-12.91,7.59-3.8,3.2-6.81,6.97-9.01,11.32-2.2,4.36-3.3,8.93-3.3,13.72s1.05,9.42,3.15,13.86c2.1,4.44,4.95,8.26,8.55,11.46,3.6,3.2,7.85,5.73,12.76,7.59,4.9,1.87,9.95,2.8,15.16,2.8h132.07l-167.18,222.49c-6,7.11-9,14.92-9,23.45,0,9.77,3.9,18.12,11.71,25.05,3.6,3.2,7.85,5.73,12.76,7.59,4.9,1.87,10.06,2.8,15.46,2.8h0Z"/>
    <path class="cls-8" d="M891.09,507.11c11.13,0,20.46-3.37,28.01-10.11,3.58-3.19,6.41-6.92,8.5-11.18,2.09-4.26,3.13-8.78,3.13-13.57V186.91c0-9.76-3.87-18.1-11.62-25.02-7.75-6.56-17.09-9.85-28.01-9.85-5.36,0-10.48.89-15.35,2.66-4.87,1.78-9.09,4.17-12.67,7.19-7.75,6.92-11.62,15.26-11.62,25.02v285.33c0,4.79,1.04,9.32,3.13,13.57,2.09,4.26,4.92,7.98,8.49,11.18,3.58,3.19,7.8,5.68,12.67,7.45,4.87,1.77,9.98,2.66,15.35,2.66h0Z"/>
    <g>
      <path class="cls-4" d="M318.84,497.14c-44.16-.24-85.68-17.58-116.91-48.82-31.24-31.23-48.57-72.76-48.81-116.91-.25-44.51,17.03-86.53,48.64-118.31,31.62-31.79,73.54-49.3,118.04-49.3h.93c44.16.25,85.68,17.58,116.91,48.82s48.57,72.75,48.81,116.91c.25,44.51-17.03,86.53-48.63,118.32-31.62,31.79-73.54,49.3-118.05,49.3h-.93Z"/>
      <path class="cls-9" d="M319.8,173.8h0,.88c41.51.23,80.54,16.53,109.9,45.89,29.36,29.36,45.66,68.39,45.89,109.89.23,41.83-16.01,81.33-45.72,111.21-14.45,14.53-31.26,25.94-49.96,33.92-19.35,8.25-39.87,12.44-60.99,12.44h-.87c-41.51-.23-80.54-16.53-109.9-45.89-29.36-29.36-45.66-68.39-45.89-109.9-.23-41.82,16.01-81.32,45.72-111.2,14.45-14.53,31.26-25.94,49.97-33.92,19.35-8.25,39.87-12.44,61-12.44M319.8,153.8c-97.51,0-177.22,80.04-176.68,177.67.53,96.78,78.89,175.14,175.67,175.67.33,0,.66,0,.98,0,97.52,0,177.22-80.03,176.68-177.67-.54-96.78-78.89-175.13-175.67-175.67-.33,0-.65,0-.99,0h0Z"/>
    </g>
    <path id="slonce" class="cls-6" d="M187.03,259.08c44.92-19.46,97.1,1.14,116.53,46.01,19.44,44.87-1.23,97.02-46.15,116.48-33.01,14.3-71.36,5.37-96.34-17.33,5.77,5.25-5.51-1.89-15.37-44.58-.07-.29-.77-3.5-.77-3.5,0,0-1.29-15.69-.96-31.92.33-16.35,4.43-33.06,4.43-33.06,0,0,.08-.22.13-.3,9.17-13.99,21.99-24.65,38.49-31.8Z"/>
    <g>
      <path class="cls-5" d="M319.53,504.07c-38.04,0-74.1-12.14-104.29-35.12-29.22-22.24-50.95-53.79-61.18-88.84l-.43-1.47c-.89-3-2.37-8.01-3.59-12.83-.17-.79-.61-5.52-1.1-11.3,8.81,9.44,30.66,22.91,83.66,22.91h.02c1.64,0,3.3-.01,5-.04,45.64-.71,95.81-9.68,132.45-16.24,14.44-2.58,26.92-4.82,36.56-6.11,15.96-2.14,32.24-3.22,48.4-3.22,17.56,0,30.29,1.31,35.36,1.93-.66,4.99-2.24,16.32-3.75,22.01-19.93,75.55-88.65,128.31-167.11,128.31Z"/>
      <path class="cls-2" d="M455.03,354.32c15.02,0,26.46.96,32.53,1.62-.77,5.56-2.09,14.42-3.35,19.18-9.38,35.54-30.68,67.68-60,90.5-14.66,11.42-30.96,20.31-48.42,26.42-18.06,6.32-37,9.53-56.27,9.53-37.49,0-73.02-11.97-102.77-34.61-14.31-10.89-26.76-23.91-36.99-38.69-10.38-14.99-18.22-31.43-23.31-48.86-.12-.4-.26-.9-.44-1.49-.87-2.96-2.34-7.89-3.53-12.63-.1-.58-.28-2.27-.49-4.62,1.44,1.15,3.06,2.31,4.89,3.46,16.57,10.48,42.05,15.79,75.73,15.79,1.66,0,3.36-.01,5.05-.04,45.84-.71,96.13-9.71,132.86-16.28,14.42-2.58,26.86-4.81,36.45-6.09,15.85-2.12,32.02-3.2,48.07-3.2M145.66,344.88s1.53,19.83,1.96,21.54c1.47,5.84,3.36,12.05,4.04,14.39,21.22,72.67,88.34,125.76,167.87,125.76s149.76-55.28,169.52-130.17c2.02-7.65,4.13-24.8,4.13-24.8,0,0-14.72-2.28-38.15-2.28-13.68,0-30.32.78-48.73,3.24-34.62,4.63-105.61,21.34-168.72,22.32-1.69.03-3.34.04-4.98.04-78.88,0-86.94-30.04-86.94-30.04h0Z"/>
    </g>
    <path class="cls-3" d="M461.89,408.37c-86.22.55-132.13,33-206.79,35.63-19.76.7-36.31-.89-50-3.63-1.59-.32,36.36,31.15,38.62,31.19,1.84.03,3.71.04,5.62.04,79.02-.04,139.04-43.3,200.56-45.74,3.7-6.04,7.6-11.95,11.99-17.49Z"/>
    <path class="cls-3" d="M661.16,354.01c-1.29.86-66.06,43.98-139.08,62.96v-13.42c66.64-13.33,137.72-48.86,139.08-49.54Z"/>
    <path class="cls-3" d="M476.98,382.8c0-.46.03-.92.06-1.37.14-2.08.46-4.15.78-6.2.11-.73.23-1.46.36-2.18-1.92-.01-3.82-.04-5.63-.09-79.29-2.1-123.58,16.02-181.5,23.14-13.02,1.6-26.74,2.65-41.7,2.78-32.45.29-56.83-2.86-75.03-7.41-.76-.19,8.51,19.08,9.29,19.22,17.77,3.17,40.4,5.31,68.86,5.04,5.94-.06,11.66-.27,17.2-.63,70.23-4.46,111.11-30.78,203.12-30.62,1.06,0,2.12,0,3.18-.02.36-.52.71-1.07,1.02-1.66Z"/>
    <path class="cls-3" d="M620.81,337.71c-.72.51-9.51,6.7-24.25,14.41-17.58,9.2-43.61,20.57-74.48,27.09v-9.5c26.21-4.89,52.09-13.46,70.78-20.5,16.3-6.14,27.13-11.13,27.95-11.5Z"/>
    <path class="cls-9" d="M319.8,173.8h0,.88c41.51.23,80.54,16.53,109.9,45.89,29.36,29.36,45.66,68.39,45.89,109.89.23,41.83-16.01,81.33-45.72,111.21-14.45,14.53-31.26,25.94-49.96,33.92-19.35,8.25-39.87,12.44-60.99,12.44h-.87c-41.51-.23-80.54-16.53-109.9-45.89-29.36-29.36-45.66-68.39-45.89-109.9-.23-41.82,16.01-81.32,45.72-111.2,14.45-14.53,31.26-25.94,49.97-33.92,19.35-8.25,39.87-12.44,61-12.44M319.8,153.8c-97.51,0-177.22,80.04-176.68,177.67.53,96.78,78.89,175.14,175.67,175.67.33,0,.66,0,.98,0,97.52,0,177.22-80.03,176.68-177.67-.54-96.78-78.89-175.13-175.67-175.67-.33,0-.65,0-.99,0h0Z"/>
    <path id="samolot" class="cls-3" d="M590.86,319.92c4.44-.8,28.8,12.48,28.8,12.48l31.2-17.28s-28.4-5.26-31.44-7.2c-6.81-4.33,5.21-13.87,12.96-15.12,21.28-3.44,56.4,1.92,56.4,1.92,0,0,27.38-18.01,51.6-28.56,19.34-8.43,43.8-.03,31.2,17.52-4.05,5.64-52.32,30-52.32,30,0,0-11.57,39.9-33.84,50.4-15.51,7.32-13.92-2.4-13.92-2.4l8.4-30.96s-59.81,28.15-72.48,26.88c-11.21-2.04-30.22-22.61-30.96-28.56,0-3.77,11.57-8.61,14.4-9.12Z"/>
    <path id="chmura" class="cls-3" d="M733.85,242.91c-.31-2.66-1-5.32-2.07-7.92-6.35-15.38-23.97-22.71-39.35-16.36-7.04,2.9-12.38,8.15-15.51,14.47-7.56-15.52-26-22.67-42.18-15.99-16.18,6.68-24.21,24.76-18.62,41.09-6.68-2.27-14.17-2.22-21.2.68-15.38,6.35-22.71,23.97-16.36,39.35,1.07,2.6,2.46,4.97,4.12,7.08-5.77-3.41-10.53-8.67-13.28-15.34-6.76-16.37,1.04-35.12,17.41-41.88,4.67-1.93,9.53-2.67,14.25-2.36-4.68-19.97,5.66-40.97,25.24-49.05,19.58-8.08,41.72-.49,52.49,16.97,3.14-3.54,7.11-6.44,11.77-8.37,16.37-6.76,35.12,1.04,41.88,17.41,2.75,6.68,3.09,13.75,1.41,20.25Z"/>
  </g>
</svg>